<svg xmlns="http://www.w3.org/2000/svg" viewBox="0 0 246.21 247.12"><defs><style>.cls-1{fill:#b3bbc4;}</style></defs><title>phone-large</title><g id="Layer_2" data-name="Layer 2"><g id="Layer_1-2" data-name="Layer 1"><path class="cls-1" d="M237,12.34,195.69,3l-5.17-1.16a43.94,43.94,0,0,0-5.15-1,11.17,11.17,0,0,0-9.05,3.86,10.55,10.55,0,0,0-1.42,2.09l-1.15,2.37-2.32,4.76-4.55,9.57c-3,6.39-5.95,12.81-8.77,19.28s-5.56,13-7.76,19.61a31,31,0,0,0-1.27,4.92,5.94,5.94,0,0,0-.06,1.07.58.58,0,0,0,0,.17v.08h0s0-.06-.09-.1l.07.06.13.1,2.05,1.68L159.45,77,175.9,90.39l2,1.68A12.42,12.42,0,0,1,180,94.23a11.32,11.32,0,0,1,2.12,5.54,11.2,11.2,0,0,1-1,5.85l-.32.67-.32.58-.65,1.17-1.3,2.33A182,182,0,0,1,167,128.28a183.27,183.27,0,0,1-13.74,16.32,178.58,178.58,0,0,1-15.58,14.55,169.09,169.09,0,0,1-17.17,12.58c-1.49,1-3,1.93-4.52,2.82s-3,1.83-4.59,2.68l-4.68,2.54a11,11,0,0,1-5.3,1.52A10.52,10.52,0,0,1,96,180a10,10,0,0,1-2.25-1.67A21.89,21.89,0,0,1,92,176.24l-6.6-8.3L72.2,151.34l0,0a2.55,2.55,0,0,0-1.57-.28,12.72,12.72,0,0,0-1.91.27,39.22,39.22,0,0,0-3.82,1c-2.53.81-5,1.76-7.49,2.77-4.94,2-9.79,4.24-14.6,6.56-9.61,4.65-19.06,9.66-28.17,15.21-2.28,1.39-4.52,2.82-6.71,4.33-1.09.75-2.16,1.53-3.19,2.34a18,18,0,0,0-2.8,2.6,2.68,2.68,0,0,0-.38.63.29.29,0,0,1,0,.1s0,0,0,0,.07.31.11.46l.46,2,.93,3.9,1.86,7.81,7.45,31.2.92,3.91c.08.33.15.65.24.93a6,6,0,0,0,.28.85,5.58,5.58,0,0,0,.35.83,6.09,6.09,0,0,0,.42.8A10.37,10.37,0,0,0,20,244.06a10.06,10.06,0,0,0,3.52.6l4-.12c2.66-.1,5.32-.13,8-.27,5.3-.46,10.61-.75,15.87-1.55l3.95-.51,2-.26,2-.36,7.84-1.42c2.61-.51,5.18-1.18,7.77-1.77l3.88-.9,3.83-1.1c2.55-.76,5.12-1.42,7.64-2.25l7.54-2.57c.63-.22,1.26-.42,1.88-.65l1.85-.74,3.71-1.47,3.7-1.47c1.23-.49,2.42-1.09,3.63-1.62,2.42-1.11,4.85-2.18,7.24-3.33l7.08-3.65,1.77-.9c.59-.32,1.16-.66,1.73-1l3.46-2,3.45-2c1.17-.64,2.25-1.4,3.38-2.1,2.23-1.44,4.49-2.85,6.7-4.31l6.5-4.6c2.2-1.49,4.22-3.22,6.33-4.83s4.2-3.25,6.18-5,4-3.45,6-5.22l5.77-5.49,1.44-1.37c.48-.46.92-.95,1.39-1.43l2.75-2.88,2.75-2.88c.93-.94,1.76-2,2.64-3l5.22-6,5-6.23,1.24-1.56c.4-.53.78-1.07,1.17-1.61L204,151l2.33-3.23c.79-1.07,1.47-2.22,2.21-3.32,1.44-2.23,2.92-4.44,4.33-6.69l4-6.89a219.58,219.58,0,0,0,23.24-59.3c.3-1.29.65-2.58.92-3.89l.74-3.93.75-3.94c.24-1.31.52-2.61.67-3.94L244.3,48c.08-.66.18-1.32.25-2l.16-2,.32-4c.55-5.32.54-10.67.73-16A11.32,11.32,0,0,0,237,12.34Zm.07-.29a11.55,11.55,0,0,1,6.7,4.31A11.84,11.84,0,0,1,246.2,24c-.16,5.35-.1,10.71-.6,16.05a227.32,227.32,0,0,1-4.41,31.8,221.48,221.48,0,0,1-22.14,60.25l-4,7c-1.4,2.3-2.86,4.55-4.29,6.83-.73,1.13-1.4,2.3-2.19,3.39l-2.31,3.3L204,155.93c-.39.55-.77,1.1-1.17,1.64l-1.24,1.6-4.94,6.38c-1.71,2.08-3.51,4.08-5.26,6.13-.89,1-1.73,2.06-2.67,3l-2.78,2.93-2.79,2.92c-.47.49-.92,1-1.4,1.46l-1.46,1.39L174.41,189c-2,1.79-4.06,3.54-6.09,5.31s-4.13,3.44-6.25,5.11-4.18,3.39-6.41,4.9L149.08,209c-2.24,1.49-4.52,2.92-6.78,4.38-1.15.71-2.25,1.49-3.43,2.14l-3.5,2-3.5,2c-.58.33-1.16.68-1.75,1l-1.8.92-7.2,3.66c-2.43,1.15-4.91,2.21-7.36,3.33-1.23.53-2.44,1.13-3.7,1.62l-3.76,1.47L102.54,233l-1.88.73c-.63.23-1.27.43-1.91.65L91.09,237c-2.56.82-5.17,1.48-7.76,2.23l-3.88,1.09-3.94.9c-2.63.57-5.24,1.24-7.88,1.74l-7.95,1.39-2,.35-2,.26-4,.49c-5.33.79-10.71,1-16.07,1.42-2.69.12-5.38.13-8.07.2l-4,.08a12.9,12.9,0,0,1-4.34-.78,12.74,12.74,0,0,1-6.62-5.6,6.08,6.08,0,0,1-.51-1,7.54,7.54,0,0,1-.42-1,15.39,15.39,0,0,1-.58-2.06l-.88-3.92-7-31.31-1.75-7.83L.57,189.7l-.44-1.95c0-.18-.07-.3-.11-.52a2.9,2.9,0,0,1,0-.51c0-.13.06-.26.1-.39a4.11,4.11,0,0,1,.64-1.08,19.33,19.33,0,0,1,3.09-2.82c1.08-.83,2.19-1.6,3.31-2.36,2.23-1.5,4.52-2.91,6.83-4.28,4.61-2.73,9.31-5.31,14.05-7.79s9.52-4.91,14.35-7.22,9.72-4.51,14.7-6.51c2.49-1,5-2,7.57-2.76a38.9,38.9,0,0,1,3.92-1,12.49,12.49,0,0,1,2.05-.28,5,5,0,0,1,1.09,0,2.17,2.17,0,0,1,1.17.5h0l0,0,13.3,16.51,6.65,8.25a19.51,19.51,0,0,0,1.68,2,9.35,9.35,0,0,0,2,1.47,9.46,9.46,0,0,0,4.8,1.15,9.59,9.59,0,0,0,4.74-1.45l4.6-2.59c1.53-.88,3-1.83,4.51-2.75s3-1.88,4.44-2.86a167.78,167.78,0,0,0,16.8-12.74,177.46,177.46,0,0,0,15.17-14.62A198.09,198.09,0,0,0,165,126.81,180.38,180.38,0,0,0,176.3,109.1l1.26-2.31.64-1.15.31-.58.26-.52a8.78,8.78,0,0,0,.72-4.49,8.54,8.54,0,0,0-1.65-4.23,9.3,9.3,0,0,0-1.6-1.66l-2.05-1.69L157.87,78.94l-8.16-6.77-2-1.69-.12-.11a1.3,1.3,0,0,1-.18-.16,1.87,1.87,0,0,1-.45-.65,2.88,2.88,0,0,1-.13-.31l0-.25a2.32,2.32,0,0,1-.06-.48,7.27,7.27,0,0,1,.08-1.58,32.55,32.55,0,0,1,1.42-5.31c1.13-3.41,2.51-6.68,3.89-10s2.85-6.49,4.33-9.71c3-6.42,6.06-12.79,9.2-19.13l4.75-9.48,2.41-4.73L174,6.26A12.25,12.25,0,0,1,175.57,4a12,12,0,0,1,9.86-4,15.42,15.42,0,0,1,2.66.48l2.58.62,5.15,1.22Z"/></g></g></svg>