<svg xmlns="http://www.w3.org/2000/svg" viewBox="0 0 245.56 246.06"><defs><style>.cls-1{fill:#b3bbc4;}</style></defs><title>phone-mobile</title><g id="Layer_2" data-name="Layer 2"><g id="Layer_1-2" data-name="Layer 1"><path class="cls-1" d="M236.55,12,195.21,2.57,190,1.39a43,43,0,0,0-5.17-1,11.39,11.39,0,0,0-9.3,3.88,11.12,11.12,0,0,0-1.48,2.13l-1.17,2.37-2.36,4.75L165.93,23c-3.05,6.37-6.05,12.77-8.93,19.22s-5.69,12.94-7.93,19.62a32.49,32.49,0,0,0-1.32,5.06,6.56,6.56,0,0,0-.06,1.24,1.11,1.11,0,0,0,0,.28.52.52,0,0,0,.07.24c0,.09.07.11.1.16s.16.13.23.2l2.05,1.68,8.21,6.71,16.42,13.42,2.05,1.68a11.56,11.56,0,0,1,1.9,2,10.42,10.42,0,0,1,2,5.11,10.52,10.52,0,0,1-.89,5.39c-.82,1.62-1.71,3.12-2.56,4.68a179.58,179.58,0,0,1-11.53,17.83,189.23,189.23,0,0,1-13.59,16.32,178.63,178.63,0,0,1-15.43,14.58,167,167,0,0,1-17,12.65c-1.48,1-3,1.95-4.48,2.84s-3,1.85-4.57,2.71L106,179.2a10.49,10.49,0,0,1-5.13,1.5,10.15,10.15,0,0,1-5.2-1.27,9.78,9.78,0,0,1-2.17-1.61,20.55,20.55,0,0,1-1.74-2l-6.61-8.29L71.92,150.92h0a2.75,2.75,0,0,0-1.8-.37,11.87,11.87,0,0,0-2,.28,34.76,34.76,0,0,0-3.85,1c-2.55.81-5,1.77-7.52,2.77-4.95,2-9.81,4.24-14.62,6.55-9.62,4.66-19.09,9.64-28.25,15.14-2.29,1.39-4.55,2.81-6.75,4.31C6.08,181.4,5,182.18,4,183a18.46,18.46,0,0,0-2.9,2.67,3.18,3.18,0,0,0-.47.78l0,.19a.86.86,0,0,1,0,.16c0,.15.07.32.11.48l.45,1.95L2,193.14,3.82,201,11.1,232.2l.91,3.91a12.41,12.41,0,0,0,1.36,3.63A11.14,11.14,0,0,0,23,245.26l4-.11c2.66-.09,5.33-.12,8-.25,5.32-.44,10.65-.71,15.93-1.5l4-.51,2-.26,2-.35,7.88-1.41c2.62-.5,5.2-1.17,7.81-1.75l3.9-.9,3.84-1.09c2.56-.76,5.15-1.41,7.69-2.24l7.58-2.57c.63-.21,1.27-.42,1.89-.65l1.86-.73,3.73-1.47,3.72-1.47c1.24-.49,2.44-1.08,3.66-1.62,2.43-1.11,4.87-2.17,7.28-3.32l7.12-3.65,1.79-.91c.58-.32,1.15-.66,1.73-1l3.47-2,3.47-2c1.17-.64,2.26-1.42,3.39-2.12,2.25-1.45,4.51-2.86,6.73-4.34l6.52-4.63c2.22-1.5,4.25-3.24,6.36-4.86s4.22-3.27,6.2-5.06,4-3.48,6-5.26l5.79-5.52,1.45-1.38c.47-.47.92-1,1.39-1.44l2.76-2.9,2.76-2.89c.94-1,1.76-2,2.65-3l5.23-6.06,5-6.27,1.25-1.57c.4-.54.78-1.09,1.17-1.63l2.33-3.25,2.33-3.25c.79-1.08,1.46-2.23,2.2-3.34,1.44-2.25,2.92-4.48,4.33-6.74l4-6.93A219.84,219.84,0,0,0,240,71.45c.3-1.31.64-2.6.89-3.91l.71-3.94.72-4c.23-1.31.5-2.62.64-3.95l1-8c.08-.66.18-1.32.25-2l.16-2,.31-4c.54-5.32.52-10.67.7-16a11.52,11.52,0,0,0-2.28-7.47A11.36,11.36,0,0,0,236.55,12Zm0-.1a11.53,11.53,0,0,1,6.63,4.29,11.72,11.72,0,0,1,2.35,7.55c-.16,5.35-.11,10.71-.63,16l-.29,4-.15,2c-.07.67-.16,1.33-.24,2l-1,8c-.13,1.33-.4,2.64-.62,4l-.7,3.95-.7,4c-.25,1.31-.58,2.61-.87,3.91a221.59,221.59,0,0,1-22.55,59.92l-4,7c-1.4,2.28-2.87,4.53-4.3,6.79-.73,1.12-1.4,2.28-2.19,3.37L205,151.86l-2.32,3.28c-.39.54-.77,1.1-1.17,1.63l-1.24,1.59-5,6.33c-1.71,2.06-3.5,4.06-5.24,6.09-.89,1-1.73,2.05-2.67,3l-2.77,2.91-2.78,2.9c-.46.49-.91,1-1.39,1.45L179,182.44,173.19,188c-2,1.78-4,3.51-6.07,5.27s-4.12,3.43-6.23,5.08-4.16,3.37-6.38,4.88L148,207.86c-2.23,1.48-4.5,2.9-6.76,4.35-1.13.71-2.23,1.48-3.4,2.13l-3.49,2-3.48,2c-.59.33-1.16.68-1.75,1l-1.79.91-7.16,3.66c-2.42,1.15-4.87,2.22-7.31,3.33-1.23.54-2.43,1.14-3.68,1.63l-3.74,1.47-3.74,1.47-1.87.74c-.62.23-1.26.43-1.9.65l-7.61,2.57c-2.55.83-5.15,1.49-7.72,2.24l-3.87,1.1-3.91.9c-2.62.58-5.21,1.25-7.84,1.76L59,243.18l-2,.35-2,.26-4,.5c-5.3.8-10.66,1-16,1.46-2.67.12-5.35.14-8,.22l-4,.09a11.74,11.74,0,0,1-4.06-.72,12,12,0,0,1-6.22-5.22,13,13,0,0,1-1.43-3.85l-.89-3.91L3.25,201.08l-1.79-7.82-.89-3.9-.45-2c0-.17-.08-.32-.11-.5s0-.22,0-.34l.08-.29a3.57,3.57,0,0,1,.55-.93,19,19,0,0,1,3-2.75c1.06-.83,2.16-1.6,3.26-2.36,2.22-1.5,4.49-2.92,6.79-4.3,9.19-5.48,18.69-10.44,28.33-15.08,4.83-2.3,9.7-4.52,14.67-6.52,2.48-1,5-2,7.54-2.76a37.11,37.11,0,0,1,3.89-1,12.16,12.16,0,0,1,2-.28,2.91,2.91,0,0,1,2,.46h0l13.28,16.53,6.64,8.26a20.75,20.75,0,0,0,1.71,2A9.46,9.46,0,0,0,95.86,179a9.71,9.71,0,0,0,5,1.2,10.07,10.07,0,0,0,4.92-1.47l4.62-2.57c1.54-.86,3-1.81,4.54-2.72s3-1.87,4.46-2.84a170.19,170.19,0,0,0,17-12.67,180.23,180.23,0,0,0,15.32-14.58,191.09,191.09,0,0,0,13.48-16.3,181,181,0,0,0,11.42-17.79c.83-1.54,1.74-3.09,2.5-4.62a9.47,9.47,0,0,0,.8-5,9.92,9.92,0,0,0-.59-2.46A9.72,9.72,0,0,0,178,95.06a10.1,10.1,0,0,0-1.75-1.83l-2-1.68-16.35-13.5-8.17-6.75-2.05-1.69c-.09-.08-.15-.12-.26-.23a1,1,0,0,1-.27-.39,1.46,1.46,0,0,1-.12-.39,1.64,1.64,0,0,1-.05-.37,7.13,7.13,0,0,1,.08-1.4,33.15,33.15,0,0,1,1.37-5.18c2.29-6.72,5.17-13.19,8.05-19.64s5.95-12.83,9-19.19l4.68-9.52,2.37-4.74,1.19-2.37A12.55,12.55,0,0,1,175.29,4,11.76,11.76,0,0,1,184.89,0a15.49,15.49,0,0,1,2.64.45l2.58.6,5.16,1.21Z"/></g></g></svg>