<svg id="Layer_1" data-name="Layer 1" xmlns="http://www.w3.org/2000/svg" viewBox="0 0 659.52 625.93"><defs><style>.cls-1{font-size:20px;}.cls-1,.cls-10{font-family:Helvetica-Light, Helvetica;font-weight:300;}.cls-2{letter-spacing:1.01em;}.cls-3{letter-spacing:1.52em;}.cls-4{font-size:28px;font-family:HelveticaNeue-Thin, Helvetica Neue;font-weight:200;letter-spacing:0.07em;}.cls-5{letter-spacing:0.06em;}.cls-6{letter-spacing:0.06em;}.cls-7{letter-spacing:0.08em;}.cls-8{fill:#1a356b;}.cls-9{fill:#fff;}.cls-10{font-size:21px;letter-spacing:-0.03em;}</style></defs><title>bodIteration1</title><text class="cls-1" transform="translate(353.58 591.47)">Board of <tspan class="cls-2" x="82.26" y="0">	</tspan><tspan class="cls-3" x="108" y="0">	</tspan><tspan x="144" y="0" xml:space="preserve">     Delegates</tspan></text><text class="cls-4" transform="translate(359.91 165.32)">Boa<tspan class="cls-5" x="52.97" y="0">r</tspan><tspan x="62.52" y="0">d of Delega</tspan><tspan class="cls-6" x="220.02" y="0">t</tspan><tspan class="cls-7" x="228.98" y="0">es</tspan></text><path class="cls-8" d="M441,41.31a27.68,27.68,0,0,1,5,16.59q0,10-5,16a25.77,25.77,0,0,1-8.28,6.19,24.21,24.21,0,0,1,12.55,9.59q4.23,6.55,4.23,15.92a31.75,31.75,0,0,1-4.84,17.33,29.92,29.92,0,0,1-20,14,75.57,75.57,0,0,1-15.36,1.47H363.59a3.3,3.3,0,0,1-3.3-3.3V33a3.3,3.3,0,0,1,3.3-3.3h49.22Q432.7,30,441,41.31Zm-59,7.3v24h26.41q7.08,0,11.5-2.69t4.41-9.55q0-7.59-5.84-10a40.85,40.85,0,0,0-12.84-1.7Zm0,42v29h26.39q7.06,0,11-1.92,7.14-3.54,7.14-13.56,0-8.49-6.92-11.65-3.87-1.77-10.86-1.85Z"/><path class="cls-8" d="M525.82,128.76q-12.32,12.68-35.61,12.68T454.6,128.76q-16.52-15.57-16.52-44.83,0-29.87,16.52-44.83,12.31-12.68,35.61-12.68T525.82,39.1q16.44,15,16.44,44.83Q542.26,113.2,525.82,128.76Z"/><path class="cls-8" d="M597.14,32.09a36,36,0,0,1,18.53,13.79,48.38,48.38,0,0,1,7.74,17.55,84,84,0,0,1,2.07,18q0,21.67-8.71,36.72Q605,138.42,580.32,138.41H536.77a3.3,3.3,0,0,1-3.31-3.3V33a3.3,3.3,0,0,1,3.31-3.3h43.55A57,57,0,0,1,597.14,32.09ZM555.51,48.61v70.93h21q16.11,0,22.45-15.85Q602.4,95,602.4,83q0-16.59-5.2-25.47t-20.72-8.89Z"/><path class="cls-9" d="M497.8,72.68l2.13-2.7c5.51,5,6.31,8.24,7.06,14.74.74-1.51,1.42-3.06,2.23-4.52a26.79,26.79,0,0,1,2.44-3.75,2.28,2.28,0,0,1,1.73-.59c.24,0,.56,1,.56,1.51,0,10.28,1,14.5,1.39,19.33A39.21,39.21,0,0,1,514,114.44a14.38,14.38,0,0,1-4.14,6.61c-3.37,3.32-6.45,4-11.14,4.74a34.18,34.18,0,0,1-11.11.29,52,52,0,0,0,4.79-3.33,50.18,50.18,0,0,0,5.87-5.79A25.84,25.84,0,0,0,504,101.52a30.18,30.18,0,0,0-2.25-12.85c-1.38-3.4-3-6.7-4.7-10-1.69,5.93-4.73,11-7.65,16.24-3.42,6.06-6.86,12.13-8.18,19.1a15.38,15.38,0,0,0,2,11.21,7.14,7.14,0,0,1,.35.84c-5,.65-9.51-.13-13.19-3.51s-5.15-7.67-5.83-12.36l.36-.31,11.59,8.63c-4.63-12.74-1.62-24.69,2.28-36.57l-.38-.21L465.94,97.85c.95-4.55,2.31-9.41,2.91-14.36s.45-10,.64-15.18c4.75.29,6.68,4.22,9,8.06a10.68,10.68,0,0,0,.07-1.25c0-.4-.15-.78-.17-1.17-.34-7-.24-14,1.48-20.91A7.79,7.79,0,0,1,484,47.47c.07,4.41,2.58,7.43,5.15,10.47a80.73,80.73,0,0,1,6.66,8.58C497,68.26,497.16,70.55,497.8,72.68Z"/><path class="cls-9" d="M500.26,66.12c-.8-2.14-1.53-4.31-2.42-6.41a13.25,13.25,0,0,1-1.07-8.66,13.13,13.13,0,0,1,1.81-3.78c0,2.4,1.26,4.19,2.28,6.06,2,3.62,3,7.27.56,11.1C501,65.06,500.57,65.67,500.26,66.12Z"/><text class="cls-10" transform="translate(42.31 227.59)">Board of Delegates</text><path class="cls-8" d="M123.68,249.82a27.61,27.61,0,0,1,5,16.59q0,10-5,16a26.1,26.1,0,0,1-8.29,6.2,24.16,24.16,0,0,1,12.55,9.58q4.24,6.57,4.24,15.93a31.72,31.72,0,0,1-4.84,17.32,29.89,29.89,0,0,1-20,14A74.67,74.67,0,0,1,92,346.93H46.3a3.3,3.3,0,0,1-3.3-3.3V241.55a3.3,3.3,0,0,1,3.3-3.3H95.52Q115.4,238.55,123.68,249.82Zm-59,7.3v24H91.09q7.08,0,11.49-2.69t4.42-9.55q0-7.61-5.84-10a40.94,40.94,0,0,0-12.84-1.7Zm0,42v29H91.06q7.06,0,11-1.91,7.14-3.54,7.14-13.57,0-8.47-6.93-11.65-3.86-1.77-10.86-1.84Z"/><path class="cls-8" d="M208.53,337.27Q196.21,349.95,172.91,350T137.3,337.27q-16.52-15.56-16.51-44.83,0-29.87,16.51-44.83,12.31-12.68,35.61-12.68t35.62,12.68q16.44,15,16.44,44.83Q225,321.71,208.53,337.27Z"/><path class="cls-8" d="M279.85,240.61a35.85,35.85,0,0,1,18.52,13.79,48.28,48.28,0,0,1,7.75,17.54,84.06,84.06,0,0,1,2.06,18q0,21.68-8.7,36.72Q287.68,346.93,263,346.93H219.47a3.3,3.3,0,0,1-3.3-3.3V241.55a3.3,3.3,0,0,1,3.3-3.3H263A57.07,57.07,0,0,1,279.85,240.61Zm-41.64,16.51v70.93h21q16.1,0,22.45-15.85,3.47-8.7,3.47-20.72,0-16.59-5.21-25.47t-20.71-8.89Z"/><path class="cls-9" d="M180.5,281.19l2.13-2.69c5.51,5,6.32,8.23,7.07,14.73.73-1.51,1.41-3.05,2.22-4.52a26.86,26.86,0,0,1,2.45-3.75,2.22,2.22,0,0,1,1.73-.58c.23,0,.55,1,.55,1.51,0,10.27,1,14.5,1.4,19.32A39.2,39.2,0,0,1,196.7,323a14.36,14.36,0,0,1-4.13,6.61c-3.38,3.32-6.46,4-11.14,4.74a34,34,0,0,1-11.12.3,52.81,52.81,0,0,0,4.8-3.34,48.65,48.65,0,0,0,5.87-5.79A25.84,25.84,0,0,0,186.74,310a30.45,30.45,0,0,0-2.25-12.84c-1.39-3.4-3-6.71-4.7-10-1.7,5.92-4.74,11-7.66,16.23-3.41,6.07-6.86,12.13-8.18,19.1a15.47,15.47,0,0,0,2,11.21,4.65,4.65,0,0,1,.35.85c-5,.64-9.5-.14-13.18-3.51s-5.15-7.68-5.84-12.37l.36-.3L159.2,327c-4.63-12.75-1.62-24.69,2.27-36.58l-.37-.21-12.46,16.11c1-4.54,2.31-9.4,2.91-14.35s.45-10,.64-15.19c4.75.29,6.68,4.23,9,8.06a10.23,10.23,0,0,0,.06-1.25c0-.39-.15-.78-.17-1.17-.33-7-.23-14,1.49-20.9a7.73,7.73,0,0,1,4.16-5.57c.07,4.41,2.58,7.42,5.14,10.46a80.73,80.73,0,0,1,6.66,8.58C179.65,276.77,179.87,279.07,180.5,281.19Z"/><path class="cls-9" d="M183,274.63c-.8-2.14-1.53-4.31-2.42-6.41a13.36,13.36,0,0,1-1.07-8.65,13.58,13.58,0,0,1,1.81-3.79c0,2.41,1.27,4.19,2.29,6.06,2,3.62,3,7.27.55,11.11C183.72,273.58,183.27,274.18,183,274.63Z"/><path class="cls-8" d="M144.86,335.86h35.68l-2.48,10.84c-8.77,0-17.43.06-26.09-.09-.8,0-1.79-1.18-2.32-2.07C148,341.78,146.51,338.9,144.86,335.86Z"/><path class="cls-8" d="M173,396.27c-1.75,0-3.49.06-5.21,0-.31,0-.83-.72-.85-1.11-.15-5.55-.3-11.11-.29-16.66,0-3.07-.13-5.92-2-8.51a72.94,72.94,0,0,1-4.06-7c4.78,0,9.41,0,14,0,1.42,0,1.41.05.65,1.54a13.73,13.73,0,0,1-1.13,2.27c-1.68,2.14-.95,4.75-1.16,7.11-.33,3.81-.17,7.67-.13,11.51,0,3.3.21,6.59.3,9.88A7,7,0,0,1,173,396.27Z"/><path class="cls-8" d="M153.42,351h23.71c-.59,2.46-.88,4.87-1.82,6.92-.35.75-2.27.85-3.49.89-2.87.11-5.76,0-8.64,0-1.46,0-2.91,0-4.37,0a.91.91,0,0,1-.7-.26C156.59,356.15,155.1,353.72,153.42,351Z"/><path class="cls-8" d="M200.9,335.78c-2.16,3.78-4.08,7.19-6.07,10.56-.17.28-.78.34-1.18.35-3.1,0-6.2,0-9.63,0,.89-2.07,1.71-3.95,2.5-5.84.26-.62.43-1.28.64-1.92.86-2.69,1.47-3.16,4.13-3.16Z"/><path class="cls-8" d="M184.88,363.43c-1.9,3.28-3.74,6.41-5.53,9.57a2.79,2.79,0,0,0-.26,1.32c0,7.25,0,14.51,0,21.86h-3.22V394c0-7.21,0-14.42,0-21.63a8.52,8.52,0,0,1,1.26-4.82,19.12,19.12,0,0,0,1.24-2.53C179.28,362.75,182.66,361.87,184.88,363.43Z"/><path class="cls-8" d="M192.1,350.9a69.78,69.78,0,0,1-3.92,6.91c-.51.7-1.93.81-3,.87-2.06.13-4.14,0-6.33,0,1-2.33,1.83-4.62,2.87-6.81a2.17,2.17,0,0,1,1.65-1C186.15,350.85,188.87,350.9,192.1,350.9Z"/><path class="cls-8" d="M172.25,409.16c-2.09,0-4.28-.39-5.67-2.33-.39-.54-.41-2.34.32-2.57a47.27,47.27,0,0,1,5.2-.17,42.42,42.42,0,0,1,6.21.23c.68.23.41,1.75.11,2.31C177.08,409.22,174.79,409.14,172.25,409.16Z"/><path class="cls-8" d="M173.45,398c0,.54.07.88.07,1.21,0,1,0,2.08,0,3.39-3,0-5.88.12-8.75-.11-.49,0-1.17-1.46-1.28-2.31a1.79,1.79,0,0,1,2-2.19C168.05,398,170.63,398,173.45,398Z"/><path class="cls-8" d="M175.54,402.46V398c1.66,0,3.26,0,4.85,0a1.52,1.52,0,0,1,1.16.82,2.8,2.8,0,0,1-.35,1.63C180,403,177.87,402.75,175.54,402.46Z"/><path class="cls-8" d="M434.78,473.68a27.68,27.68,0,0,1,5,16.59q0,10-5,16a25.77,25.77,0,0,1-8.28,6.19A24.21,24.21,0,0,1,439,522.05q4.23,6.56,4.23,15.92a31.73,31.73,0,0,1-4.84,17.33,29.92,29.92,0,0,1-20,14,75.54,75.54,0,0,1-15.36,1.48H357.39a3.31,3.31,0,0,1-3.3-3.31V465.41a3.3,3.3,0,0,1,3.3-3.3h49.22Q426.49,462.4,434.78,473.68Zm-59,7.3v24h26.41q7.08,0,11.5-2.69t4.41-9.55q0-7.59-5.84-10a40.85,40.85,0,0,0-12.84-1.7Zm0,41.95v29h26.38q7.08,0,11-1.92,7.14-3.54,7.14-13.56,0-8.49-6.92-11.65-3.87-1.77-10.86-1.85Z"/><path class="cls-8" d="M519.62,532.92Q507.31,545.6,484,545.6T448.4,532.92q-16.51-15.55-16.52-44.83,0-29.86,16.52-44.83,12.3-12.67,35.61-12.68t35.61,12.68q16.44,15,16.44,44.83Q536.06,517.36,519.62,532.92Z"/><path class="cls-8" d="M590.94,464.47a35.85,35.85,0,0,1,18.52,13.78,48.23,48.23,0,0,1,7.75,17.55,84,84,0,0,1,2.07,18q0,21.68-8.71,36.72-11.8,20.28-36.45,20.28H530.56a3.31,3.31,0,0,1-3.3-3.31V465.41a3.3,3.3,0,0,1,3.3-3.3h43.56A57,57,0,0,1,590.94,464.47ZM549.31,481v70.93h21q16.1,0,22.45-15.85,3.46-8.7,3.47-20.72,0-16.59-5.2-25.47T570.28,481Z"/><path class="cls-9" d="M491.6,476.84l2.12-2.69c5.52,5,6.32,8.23,7.07,14.73.74-1.51,1.42-3.05,2.23-4.52a25.93,25.93,0,0,1,2.44-3.75,2.24,2.24,0,0,1,1.73-.58c.24,0,.56,1,.56,1.51,0,10.27,1,14.5,1.39,19.32a39.21,39.21,0,0,1-1.34,17.74,14.32,14.32,0,0,1-4.14,6.61c-3.38,3.32-6.46,4-11.14,4.74a33.91,33.91,0,0,1-11.11.3,54.07,54.07,0,0,0,4.79-3.34,48.65,48.65,0,0,0,5.87-5.79,25.82,25.82,0,0,0,5.76-15.44,30.17,30.17,0,0,0-2.25-12.84c-1.38-3.4-3-6.71-4.7-10-1.69,5.92-4.73,11-7.65,16.23-3.42,6.07-6.86,12.13-8.18,19.1a15.37,15.37,0,0,0,2,11.21,7.36,7.36,0,0,1,.35.85c-5,.64-9.51-.14-13.19-3.51s-5.15-7.68-5.83-12.37l.36-.3,11.59,8.63c-4.63-12.75-1.62-24.69,2.27-36.58l-.37-.21L459.74,502c.95-4.54,2.31-9.4,2.91-14.35s.45-10,.64-15.19c4.75.29,6.67,4.23,9,8.07a10.83,10.83,0,0,0,.07-1.26c0-.39-.15-.78-.17-1.17-.34-7-.24-14,1.48-20.9a7.73,7.73,0,0,1,4.16-5.57c.07,4.41,2.58,7.42,5.15,10.46a81.75,81.75,0,0,1,6.66,8.58C490.75,472.42,491,474.72,491.6,476.84Z"/><path class="cls-9" d="M494.06,470.28c-.81-2.14-1.53-4.31-2.42-6.41a11.57,11.57,0,0,1,.74-12.44c0,2.41,1.26,4.19,2.28,6.06,2,3.62,3,7.27.56,11.11C494.81,469.23,494.37,469.84,494.06,470.28Z"/><path class="cls-8" d="M460.72,533.5h29.61c-.7,3-1.37,6-2.06,9-7.27,0-14.46,0-21.65-.08-.66,0-1.48-1-1.92-1.71C463.32,538.41,462.1,536,460.72,533.5Z"/><path class="cls-8" d="M484.06,583.62c-1.46,0-2.89,0-4.33,0-.26,0-.69-.59-.7-.92-.12-4.6-.25-9.21-.24-13.82,0-2.54-.11-4.91-1.68-7.06a55.73,55.73,0,0,1-3.37-5.83c4,0,7.8,0,11.64,0,1.18,0,1.18,0,.55,1.28a11.31,11.31,0,0,1-.95,1.87c-1.39,1.78-.78,3.95-1,5.91a95,95,0,0,0-.11,9.55c0,2.73.17,5.46.25,8.2C484.17,583,484.11,583.2,484.06,583.62Z"/><path class="cls-8" d="M467.83,546.07H487.5a32.38,32.38,0,0,1-1.51,5.75c-.29.62-1.89.7-2.89.74-2.39.09-4.78,0-7.17,0-1.21,0-2.42,0-3.63,0a.76.76,0,0,1-.58-.22C470.46,550.33,469.22,548.31,467.83,546.07Z"/><path class="cls-8" d="M507.22,533.43c-1.79,3.14-3.39,6-5,8.76-.13.23-.64.29-1,.29-2.57,0-5.14,0-8,0,.74-1.72,1.43-3.28,2.08-4.85.22-.51.36-1.06.53-1.59.71-2.23,1.22-2.62,3.43-2.62Z"/><path class="cls-8" d="M493.93,556.37c-1.58,2.72-3.1,5.32-4.59,7.94a2.34,2.34,0,0,0-.21,1.09c0,6,0,12,0,18.14h-2.67V581.7c0-6,0-12,0-17.94a7.11,7.11,0,0,1,1.05-4,15.14,15.14,0,0,0,1-2.1A3.76,3.76,0,0,1,493.93,556.37Z"/><path class="cls-8" d="M499.92,546a61,61,0,0,1-3.25,5.73c-.43.58-1.6.67-2.45.72-1.71.11-3.43,0-5.25,0,.8-1.93,1.51-3.83,2.38-5.65a1.78,1.78,0,0,1,1.37-.79C495,545.93,497.24,546,499.92,546Z"/><path class="cls-8" d="M483.45,594.31c-1.74,0-3.55-.32-4.7-1.93-.32-.45-.34-1.94.26-2.13a37.54,37.54,0,0,1,4.32-.15,34.57,34.57,0,0,1,5.15.2c.56.18.34,1.44.09,1.92C487.46,594.36,485.56,594.29,483.45,594.31Z"/><path class="cls-8" d="M484.44,585c0,.45.06.73.07,1v2.82c-2.48,0-4.88.09-7.26-.09-.41,0-1-1.22-1.06-1.93a1.48,1.48,0,0,1,1.63-1.81Z"/><path class="cls-8" d="M486.18,588.75V585c1.38,0,2.7,0,4,0a1.26,1.26,0,0,1,1,.68,2.27,2.27,0,0,1-.3,1.36C489.87,589.17,488.11,589,486.18,588.75Z"/></svg>