<svg id="Layer_1" data-name="Layer 1" xmlns="http://www.w3.org/2000/svg" viewBox="0 0 642.52 605.63"><defs><style>.cls-1,.cls-5{font-size:28px;font-family:HelveticaNeue-Light, Helvetica Neue;font-weight:300;}.cls-1,.cls-3,.cls-5{fill:#1a356b;}.cls-2{letter-spacing:-0.02em;}.cls-4{fill:#fff;}.cls-5{letter-spacing:0.03em;}.cls-6{letter-spacing:0.01em;}</style></defs><title>bodIteration1.5</title><text class="cls-1" transform="translate(356.38 355.47)">Boa<tspan class="cls-2" x="48.78" y="0">r</tspan><tspan x="57.09" y="0">d of Delegates</tspan></text><path class="cls-3" d="M437.45,231.46a27.67,27.67,0,0,1,5,16.59q0,10-5,16a26.1,26.1,0,0,1-8.29,6.2,24.16,24.16,0,0,1,12.55,9.58q4.24,6.57,4.24,15.93a31.72,31.72,0,0,1-4.84,17.32,29.89,29.89,0,0,1-20,14,74.67,74.67,0,0,1-15.35,1.48H360.06a3.3,3.3,0,0,1-3.3-3.3V223.19a3.3,3.3,0,0,1,3.3-3.3h49.22Q429.16,220.18,437.45,231.46Zm-59,7.3v24h26.41q7.08,0,11.49-2.7t4.42-9.54q0-7.61-5.84-10a40.94,40.94,0,0,0-12.84-1.7Zm0,42v29h26.38q7.06,0,11-1.92,7.14-3.52,7.14-13.56,0-8.47-6.93-11.65-3.85-1.77-10.86-1.84Z"/><path class="cls-3" d="M496.08,323.56q-7.79,8-22.54,8t-22.54-8q-10.46-9.84-10.45-28.37,0-18.9,10.45-28.37,7.8-8,22.54-8t22.54,8q10.41,9.46,10.41,28.37Q506.49,313.72,496.08,323.56Z"/><path class="cls-3" d="M567.92,222.25A35.89,35.89,0,0,1,586.44,236a48.4,48.4,0,0,1,7.75,17.55,84.06,84.06,0,0,1,2.06,18q0,21.68-8.7,36.72-11.81,20.28-36.46,20.28H507.54a3.3,3.3,0,0,1-3.3-3.3V223.19a3.3,3.3,0,0,1,3.3-3.3h43.55A57.09,57.09,0,0,1,567.92,222.25Zm-41.64,16.51v70.93h21q16.1,0,22.45-15.85,3.46-8.7,3.47-20.72,0-16.59-5.21-25.47t-20.71-8.89Z"/><path class="cls-4" d="M478.34,288.07l1.35-1.71c3.49,3.2,4,5.22,4.47,9.33.47-1,.9-1.93,1.41-2.86a17,17,0,0,1,1.55-2.38,1.43,1.43,0,0,1,1.1-.36c.14,0,.35.62.35,1a94.47,94.47,0,0,0,.88,12.23,24.91,24.91,0,0,1-.85,11.23,9.12,9.12,0,0,1-2.62,4.19c-2.14,2.1-4.09,2.51-7.05,3a21.85,21.85,0,0,1-7,.18,33.26,33.26,0,0,0,3-2.11,31.46,31.46,0,0,0,3.72-3.67,16.38,16.38,0,0,0,3.64-9.77,19.28,19.28,0,0,0-1.42-8.13c-.88-2.15-1.9-4.24-3-6.32-1.07,3.75-3,7-4.84,10.27-2.17,3.85-4.35,7.69-5.18,12.09a9.77,9.77,0,0,0,1.24,7.1,3.4,3.4,0,0,1,.22.53c-3.15.41-6-.08-8.35-2.22a12.6,12.6,0,0,1-3.69-7.82l.23-.2,7.34,5.47c-2.93-8.07-1-15.63,1.44-23.15l-.24-.14L458.18,304c.6-2.88,1.46-5.95,1.84-9.09s.29-6.31.4-9.61c3,.19,4.23,2.68,5.71,5.11a6.3,6.3,0,0,0,0-.8c0-.25-.09-.49-.11-.74a45.54,45.54,0,0,1,.94-13.23,4.92,4.92,0,0,1,2.64-3.53c0,2.8,1.63,4.71,3.25,6.63a50,50,0,0,1,4.22,5.43A15.48,15.48,0,0,1,478.34,288.07Z"/><path class="cls-4" d="M479.9,283.92c-.51-1.36-1-2.73-1.53-4.06a8.45,8.45,0,0,1-.68-5.48,8.62,8.62,0,0,1,1.15-2.39,7.8,7.8,0,0,0,1.44,3.83c1.25,2.29,1.92,4.6.36,7C480.38,283.25,480.1,283.63,479.9,283.92Z"/><text class="cls-1" transform="translate(40.74 165.32)">Boa<tspan class="cls-2" x="48.78" y="0">r</tspan><tspan x="57.09" y="0">d of Delegates</tspan></text><path class="cls-3" d="M121.81,41.31a27.67,27.67,0,0,1,5,16.59q0,10-5,16a25.94,25.94,0,0,1-8.29,6.19A24.17,24.17,0,0,1,126,89.68q4.24,6.55,4.24,15.92a31.75,31.75,0,0,1-4.84,17.33,30,30,0,0,1-20,14,75.4,75.4,0,0,1-15.35,1.47H44.42a3.3,3.3,0,0,1-3.3-3.3V33a3.3,3.3,0,0,1,3.3-3.3H93.64Q113.52,30,121.81,41.31Zm-59,7.3v24H89.21q7.08,0,11.49-2.69t4.42-9.55q0-7.59-5.84-10a40.94,40.94,0,0,0-12.84-1.7Zm0,42v29H89.18q7.06,0,11-1.92,7.14-3.54,7.14-13.56,0-8.49-6.93-11.65-3.86-1.77-10.86-1.85Z"/><path class="cls-3" d="M248.74,32.09a35.92,35.92,0,0,1,18.52,13.79A48.23,48.23,0,0,1,275,63.43a84,84,0,0,1,2.07,18q0,21.67-8.71,36.72-11.81,20.28-36.45,20.27H188.36a3.3,3.3,0,0,1-3.3-3.3V33a3.3,3.3,0,0,1,3.3-3.3h43.56A57,57,0,0,1,248.74,32.09ZM207.11,48.61v70.93h21q16.1,0,22.45-15.85Q254,95,254,83q0-16.59-5.2-25.47t-20.72-8.89Z"/><path class="cls-3" d="M164.06,84.68l2.12-2.7c5.52,5,6.32,8.24,7.07,14.74.74-1.52,1.42-3.06,2.23-4.53a27.07,27.07,0,0,1,2.44-3.75,2.26,2.26,0,0,1,1.73-.58c.24,0,.56,1,.56,1.51,0,10.28,1,14.5,1.39,19.33a39.18,39.18,0,0,1-1.34,17.73,14.41,14.41,0,0,1-4.14,6.62c-3.38,3.31-6.46,4-11.14,4.74a34.18,34.18,0,0,1-11.11.29,50.16,50.16,0,0,0,4.79-3.34,48.65,48.65,0,0,0,5.87-5.79,25.79,25.79,0,0,0,5.76-15.43A30.18,30.18,0,0,0,168,100.67c-1.38-3.4-3-6.7-4.7-10-1.69,5.92-4.73,11-7.65,16.23-3.42,6.07-6.87,12.14-8.18,19.1a15.37,15.37,0,0,0,2,11.21,8.19,8.19,0,0,1,.35.85c-5,.65-9.51-.13-13.19-3.51s-5.15-7.67-5.83-12.37l.36-.3,11.59,8.63c-4.63-12.75-1.62-24.69,2.27-36.58l-.37-.2c-4.23,5.46-8.45,10.93-12.45,16.1,1-4.54,2.3-9.4,2.91-14.35s.45-10,.64-15.19c4.74.3,6.67,4.23,9,8.07a10.73,10.73,0,0,0,.07-1.26c0-.39-.16-.77-.17-1.16-.34-7-.24-14,1.48-20.91a7.75,7.75,0,0,1,4.16-5.57c.07,4.41,2.58,7.43,5.14,10.47a79.54,79.54,0,0,1,6.67,8.58C163.21,80.25,163.42,82.55,164.06,84.68Z"/><path class="cls-3" d="M166.52,78.12c-.81-2.15-1.53-4.31-2.42-6.41A13.33,13.33,0,0,1,163,63.05a13.16,13.16,0,0,1,1.82-3.78c0,2.4,1.26,4.18,2.28,6.06,2,3.61,3,7.27.56,11.1C167.27,77.06,166.83,77.67,166.52,78.12Z"/><text class="cls-5" transform="translate(40.74 566.17)">Boa<tspan class="cls-6" x="50.88" y="0">r</tspan><tspan x="59.89" y="0">d of Delegates</tspan></text><path class="cls-3" d="M121.81,446.16a27.67,27.67,0,0,1,5,16.59q0,9.94-5,16a26.08,26.08,0,0,1-8.29,6.19A24.17,24.17,0,0,1,126,494.53q4.24,6.56,4.24,15.92a31.75,31.75,0,0,1-4.84,17.33,30,30,0,0,1-20,14,75.4,75.4,0,0,1-15.35,1.47H44.42a3.3,3.3,0,0,1-3.3-3.3V437.88a3.3,3.3,0,0,1,3.3-3.3H93.64Q113.52,434.88,121.81,446.16Zm-59,7.3v24H89.21q7.08,0,11.49-2.69t4.42-9.55q0-7.59-5.84-10a41,41,0,0,0-12.84-1.69Zm0,42v29H89.18q7.06,0,11-1.92,7.14-3.54,7.14-13.57,0-8.47-6.93-11.65-3.86-1.75-10.86-1.84Z"/><path class="cls-3" d="M263.1,436.94a36,36,0,0,1,18.52,13.79,48.4,48.4,0,0,1,7.75,17.55,84,84,0,0,1,2.06,18q0,21.68-8.7,36.72-11.81,20.26-36.45,20.27H202.72a3.3,3.3,0,0,1-3.3-3.3V437.88a3.3,3.3,0,0,1,3.3-3.3h43.56A57.4,57.4,0,0,1,263.1,436.94Zm-41.64,16.52v70.93h21q16.09,0,22.45-15.85,3.47-8.7,3.47-20.72,0-16.59-5.21-25.48t-20.71-8.88Z"/><path class="cls-3" d="M174.26,469.47l2.93-3.7c7.56,6.93,8.67,11.31,9.7,20.23,1-2.07,1.94-4.19,3.06-6.21a36.56,36.56,0,0,1,3.35-5.14,3,3,0,0,1,2.38-.8c.32,0,.76,1.34.76,2.07,0,14.11,1.36,19.91,1.91,26.54a53.65,53.65,0,0,1-1.84,24.35,19.7,19.7,0,0,1-5.68,9.08c-4.64,4.56-8.87,5.45-15.29,6.51a47.07,47.07,0,0,1-15.27.41,72.42,72.42,0,0,0,6.59-4.59,67.26,67.26,0,0,0,8.06-8,35.39,35.39,0,0,0,7.9-21.19,41.29,41.29,0,0,0-3.09-17.64c-1.89-4.67-4.11-9.21-6.45-13.72-2.32,8.13-6.5,15.17-10.51,22.29-4.69,8.33-9.42,16.66-11.23,26.22a21.18,21.18,0,0,0,2.69,15.4,7.27,7.27,0,0,1,.48,1.16c-6.83.89-13.05-.18-18.11-4.82s-7.07-10.54-8-17l.49-.42L145,532.42c-6.36-17.5-2.23-33.9,3.12-50.22l-.51-.29c-5.81,7.51-11.61,15-17.11,22.12,1.31-6.24,3.18-12.91,4-19.71s.62-13.7.88-20.85c6.52.4,9.17,5.8,12.38,11.07a14.83,14.83,0,0,0,.09-1.72c0-.54-.21-1.07-.24-1.6-.45-9.65-.32-19.29,2-28.71.78-3.11,2.31-6.07,5.72-7.65.09,6.06,3.54,10.2,7.06,14.37A112.27,112.27,0,0,1,171.59,461C173.1,463.4,173.39,466.56,174.26,469.47Z"/><path class="cls-3" d="M177.64,460.47c-1.1-3-2.1-5.92-3.32-8.8-1.63-3.85-2.52-7.78-1.47-11.89a18,18,0,0,1,2.49-5.2c0,3.3,1.73,5.75,3.13,8.32,2.7,5,4.15,10,.76,15.25C178.68,459,178.07,459.85,177.64,460.47Z"/></svg>