<svg id="Layer_1" data-name="Layer 1" xmlns="http://www.w3.org/2000/svg" viewBox="0 0 754.59 437.11"><defs><style>.cls-1{font-size:59px;font-family:HelveticaNeue-Light, Helvetica Neue;font-weight:300;letter-spacing:0.03em;}.cls-1,.cls-3{fill:#1a356b;}.cls-2{letter-spacing:0.01em;}</style></defs><title>bodLogoFinal</title><text class="cls-1" transform="translate(111.86 388.91)">Boa<tspan class="cls-2" x="108.09" y="0">r</tspan><tspan x="127.38" y="0">d of Delegates</tspan></text><path class="cls-3" d="M396.47,168.81l6.33-8c16.37,15,18.77,24.46,21,43.77,2.19-4.49,4.21-9.07,6.62-13.44A81.26,81.26,0,0,1,437.67,180c1-1.24,3.45-1.87,5.15-1.72.69.05,1.64,2.9,1.64,4.48,0,30.54,3,43.08,4.14,57.42,3.17,19.1.48,39.46-4,52.71-2.12,8.59-7.7,15.14-12.29,19.65-10,9.86-19.18,11.79-33.1,14.09-11,1.81-21.72,2.65-33,.87,4.92-3.37,10-6.2,14.25-9.92,6.16-5.36,12.3-10.92,17.45-17.21,10.84-13.23,16.31-28.95,17.11-45.86a90,90,0,0,0-6.69-38.18c-4.11-10.09-8.9-19.91-14-29.68-5,17.6-14.07,32.82-22.75,48.23-10.15,18-20.39,36.06-24.31,56.76A45.83,45.83,0,0,0,353.13,325a19.59,19.59,0,0,1,1,2.51c-14.77,1.92-28.24-.4-39.18-10.42-10.71-9.81-15.3-22.81-17.33-36.75l1.07-.9L333.17,305c-13.76-37.87-4.82-73.36,6.75-108.68l-1.11-.62c-12.56,16.24-25.12,32.48-37,47.87,2.83-13.51,6.86-27.95,8.66-42.65s1.34-29.66,1.89-45.14c14.11.88,19.85,12.56,26.79,24a35.92,35.92,0,0,0,.2-3.73c-.07-1.16-.46-2.31-.51-3.47-1-20.88-.7-41.73,4.41-62.11,1.69-6.74,5-13.13,12.37-16.56.2,13.11,7.66,22.07,15.27,31.1,6.94,8.23,14.07,16.44,19.8,25.49C394,155.67,394.58,162.5,396.47,168.81Z"/><path class="cls-3" d="M403.79,149.32c-2.39-6.37-4.56-12.81-7.2-19-3.53-8.33-5.46-16.83-3.18-25.73a39.47,39.47,0,0,1,5.38-11.24c-.06,7.14,3.76,12.44,6.79,18,5.85,10.75,9,21.61,1.65,33C406,146.18,404.7,148,403.79,149.32Z"/><path class="cls-3" d="M116.19,100a4.33,4.33,0,0,1,4.33-4.33h96.34q41.14,0,58.55,24.41,10.2,14.43,10.21,33.28,0,22-12.52,36.14a52.3,52.3,0,0,1-11.2,9.37,4.32,4.32,0,0,0,.5,7.6q12,5.5,18.78,12,15.69,15.22,15.69,42a64.67,64.67,0,0,1-14.19,40.74q-21.21,27.25-67.46,27.26h-94.7a4.33,4.33,0,0,1-4.33-4.33Zm88.88,94.1q20.18,0,31.39-5.55,17.61-8.72,17.62-31.38,0-22.83-18.74-30.75Q224.77,122,204,122H151.42a4.32,4.32,0,0,0-4.32,4.33v63.46a4.32,4.32,0,0,0,4.32,4.33Zm10.66,107.45q29.28,0,41.76-16.8,7.83-10.61,7.84-25.67,0-25.37-22.88-34.55-12.16-4.92-32.16-4.92H151.42a4.32,4.32,0,0,0-4.32,4.33v73.28a4.32,4.32,0,0,0,4.32,4.33Z"/><path class="cls-3" d="M452.85,100a4.33,4.33,0,0,1,4.33-4.33h88.73q47.4,0,73.51,34.08,23.31,30.75,23.31,78.77,0,37.08-13.77,67-24.24,52.93-83.36,52.94H457.18a4.33,4.33,0,0,1-4.33-4.33Zm86.88,201.55q15.64,0,25.72-3.33,18-6.18,29.45-23.77,9.14-14.1,13.17-36.14a140.74,140.74,0,0,0,2.32-24.4q0-43.28-16.81-67.2t-54.16-23.94H489a4.33,4.33,0,0,0-4.33,4.33V297.21a4.33,4.33,0,0,0,4.33,4.33Z"/></svg>