<svg xmlns="http://www.w3.org/2000/svg" viewBox="0 0 415.67 70.95"><defs><style>.cls-1{font-size:66.7px;fill:#342951;font-family:DeliusSwashCaps-Regular, Delius Swash Caps;}.cls-2{letter-spacing:-0.03em;}.cls-3{fill:none;stroke:#342951;stroke-linecap:round;stroke-linejoin:round;stroke-width:4.5px;}</style></defs><title>whyDreamOnLogotype</title><g id="Layer_2" data-name="Layer 2"><g id="Layer_1-2" data-name="Layer 1"><text class="cls-1" transform="translate(0 52.94)">D<tspan class="cls-2" x="54.89" y="0">r</tspan><tspan x="80.1" y="0">eam:On</tspan></text><path class="cls-3" d="M370.72,5.85a23.22,23.22,0,0,0-9.41,4.64,21.84,21.84,0,0,0-4.88,5.82,23.87,23.87,0,0,0-1.67,3.59c-.61,1.61-.63,1.64-2.34,1.64a16.88,16.88,0,1,0,0,33.75h47.73A13.26,13.26,0,0,0,413.42,42c0-7.32-1.56-13.92-10.14-13.92-4,0-4.42,3.09-4.42,6.63,0,.44-.69-6.64-.72-6.64,0-10.8-5.14-19.72-15.24-22.26"/><path class="cls-3" d="M358.41,17.28a13.11,13.11,0,0,0-3.21,9.48c.62,11.77,9.56,21.35,21.35,21.35s21.6-8.29,21.6-20.08"/><line class="cls-3" x1="376.72" y1="2.25" x2="376.72" y2="20.15"/></g></g></svg>