<svg xmlns="http://www.w3.org/2000/svg" viewBox="0 0 800 500"><defs><style>.cls-1{fill:#342951;}.cls-2{fill:#fff;}</style></defs><title>finalLogotypeDark</title><g id="Layer_5" data-name="Layer 5"><path class="cls-1" d="M417.75,237.2c50.67.08,142.57.21,158,.21,19.3,0,29.4-14.8,29.4-29.41s-10-29.32-29.25-29.4c-4.27.25-9.17,1.07-10.35,1.74a5.35,5.35,0,0,1-1.06.49,25.46,25.46,0,0,0-12.25,8.87,5.47,5.47,0,0,1-8.7-6.62,36.21,36.21,0,0,1,17-12.43c4.34-2.23,12.47-2.83,15-3h.3c26.48,0,40.33,20.29,40.33,40.33,0,19.55-14.14,40.33-40.33,40.33-15.41,0-106.92-.12-157.63-.2"/><path class="cls-1" d="M337.05,224.73a58.24,58.24,0,0,1,5.3-75.71,56.48,56.48,0,0,1,40.49-17c13,0,24.67,4.28,33.78,12.36a5.46,5.46,0,1,1-7.24,8.17c-7.09-6.28-16.27-9.6-26.54-9.6a45.66,45.66,0,0,0-32.71,13.78,47.32,47.32,0,0,0-6.82,57.78"/><path class="cls-1" d="M544.41,168.9a5.47,5.47,0,0,1-5.47-5.47,70.64,70.64,0,0,0-129.21-39.49,5.46,5.46,0,0,1-9.06-6.11,81.57,81.57,0,0,1,149.2,45.6A5.46,5.46,0,0,1,544.41,168.9Z"/><path class="cls-2" d="M495.6,184.57h-.45c-3.58.19-9.9.82-14,2.81a34.54,34.54,0,0,0-16,11.77,8.32,8.32,0,1,0,13.23,10.08,18.11,18.11,0,0,1,8.73-6.33,9.18,9.18,0,0,0,1.4-.62,35,35,0,0,1,7.27-1.09c14.58.11,21.22,11.17,21.22,21.45,0,10.66-7.37,21.45-21.45,21.45s-51.65.08-68.52.11l.13-11.75A28.56,28.56,0,0,0,399,203.56h-.34a28.37,28.37,0,0,0-20,8.14l-.05.06-.06-.06a28.37,28.37,0,0,0-20.1-8.6h-.34a28.4,28.4,0,0,0-13.7,3.51,8.31,8.31,0,0,0-6.78-3.51h-.09a8.31,8.31,0,0,0-8.22,8.41l.23,20h0l-.23,35.71a8.32,8.32,0,0,0,8.26,8.37h.05a8.32,8.32,0,0,0,8.32-8.26l.23-35.84a11.83,11.83,0,0,1,3.59-8.4,11.69,11.69,0,0,1,8.49-3.4,11.93,11.93,0,0,1,11.8,12.07h0L369.84,252a8.32,8.32,0,0,0,8.22,8.41h.1a8.31,8.31,0,0,0,8.31-8.22L386.7,232a11.89,11.89,0,0,1,3.59-8.41,11.58,11.58,0,0,1,8.49-3.4,12,12,0,0,1,11.81,12.08l-.23,20.18a8.3,8.3,0,0,0,8.31,8.41h0s58.43-.13,76.91-.13c21.71,0,38.08-16.37,38.08-38.08S517.31,184.57,495.6,184.57Z"/><path class="cls-1" d="M105.3,203.76l.14,10.26.43,8.56c.19,2.47.28,4.2.28,5.2s0,2-.07,3.06a6.26,6.26,0,0,1-1.64,3.5,4.32,4.32,0,0,1-3.21,1.92,7.14,7.14,0,0,1-2.92-.57,6.57,6.57,0,0,1-3.71-6.41l.57-17.54V204.9a18.73,18.73,0,0,0-10.47,7.34,21.13,21.13,0,0,0-3.92,12.62q0,11.12,9,19.24,9.26,8,23.66,8,19.81,0,33.29-13.05t13.47-30.86a51.37,51.37,0,0,0-10.55-31.8,36.57,36.57,0,0,0-13.83-10.83,44.29,44.29,0,0,0-19-4,49.17,49.17,0,0,0-10.69,1.28l-11.69,3.28q-6.84,0-6.84-4.85T97.17,154a86.7,86.7,0,0,1,21.24-2.42,55.06,55.06,0,0,1,22.38,4.7A45.66,45.66,0,0,1,158,169a56.88,56.88,0,0,1,13.83,37.78,55.14,55.14,0,0,1-6.77,27.09q-6.76,12.25-20.24,20.24t-31.94,8q-18.47,0-30.86-10.7T69.65,224.86A28.57,28.57,0,0,1,77,205.11a31.32,31.32,0,0,1,18-10.19C102.65,193.59,105.2,197.08,105.3,203.76Zm.14-9.55"/><path class="cls-1" d="M248.28,257.94a26.11,26.11,0,0,1-26.08-26.08c0-.43,0-.85,0-1.28,0-.21,0-.43,0-.65a6.37,6.37,0,0,1,.17-1.33c1.45-13.21,11.58-22.81,24.71-22.81,14.41,0,24.87,10.46,24.87,24.87a5.77,5.77,0,0,1-1.74,4.15,5.55,5.55,0,0,1-4.17,1.67L234.43,236a14.43,14.43,0,0,0,24.05,6.12,5.82,5.82,0,0,1,8.24,8.23A25.91,25.91,0,0,1,248.28,257.94ZM235.6,224.33l23.54.4c-2-4.53-6.35-7.3-12.06-7.3A12.66,12.66,0,0,0,235.6,224.33Z"/><path class="cls-1" d="M218.5,209.75a26.05,26.05,0,0,0-28.38.56,5.81,5.81,0,0,0-11.47,1.33v40.45a5.82,5.82,0,1,0,11.64,0V231.9a14.45,14.45,0,0,1,22.06-12.27,5.82,5.82,0,0,0,6.15-9.88Z"/><path class="cls-1" d="M327.25,247.92c-.09-.1-2.25-2.36-2.25-14.52,0,0,0-.07,0-.11,0-.46.07-.92.07-1.39a26.17,26.17,0,1,0-9,19.68,14.16,14.16,0,0,0,3.24,4.82,5.69,5.69,0,0,0,3.91,1.55,5.84,5.84,0,0,0,4.06-10ZM299,246.34a14.44,14.44,0,1,1,14.43-14.44A14.45,14.45,0,0,1,299,246.34Z"/><path class="cls-1" d="M521.83,198C515.31,191,506,187.06,495.6,187.06h-.32c-2.76.15-9.34.7-13.15,2.62a32.18,32.18,0,0,0-14.95,11,5.82,5.82,0,1,0,9.27,7.05,20.56,20.56,0,0,1,9.91-7.17,5.3,5.3,0,0,0,1.08-.5c1-.52,4.95-1.15,8.32-1.35,16.34.08,23.79,12.45,23.79,24,0,11.9-8.23,23.94-23.95,23.94-14.9,0-55.73.09-71,.12l.16-14.28a26.12,26.12,0,0,0-25.78-26.38h-.3a26,26,0,0,0-20.07,9.46,26,26,0,0,0-20.14-9.92h-.3a25.92,25.92,0,0,0-14.88,4.7,5.81,5.81,0,0,0-5.61-4.32h-.06a5.83,5.83,0,0,0-5.76,5.88l.23,20-.23,35.39a5.82,5.82,0,0,0,5.78,5.85h0a5.82,5.82,0,0,0,5.82-5.78l.23-35.84a14.46,14.46,0,0,1,14.44-14.28h.16a14.45,14.45,0,0,1,14.28,14.6L372.34,252a5.82,5.82,0,1,0,11.64.13l.23-20.18a14.46,14.46,0,0,1,14.43-14.28h.17a14.45,14.45,0,0,1,14.27,14.6l-.23,20.19a5.84,5.84,0,0,0,5.82,5.89h0s58.44-.14,76.92-.14c23.11,0,35.59-18.33,35.59-35.58A36.15,36.15,0,0,0,521.83,198Z"/><path class="cls-1" d="M474.55,335a33.69,33.69,0,0,0-22.24,8.39v-1.21a5.82,5.82,0,0,0-11.64,0v54.77a5.82,5.82,0,1,0,11.64,0V368.85a22.25,22.25,0,0,1,44.49,0v28a5.82,5.82,0,1,0,11.64,0v-28A33.92,33.92,0,0,0,474.55,335Z"/><path class="cls-1" d="M349.15,423.41a81.14,81.14,0,0,1-80.26-93.52,5.82,5.82,0,0,1,11.51,1.76,69.56,69.56,0,0,0,117.93,59.79,69.57,69.57,0,0,0,0-98.37,69.86,69.86,0,0,0-59.79-19.56A5.82,5.82,0,0,1,336.78,262a81.57,81.57,0,0,1,69.78,22.84,81.16,81.16,0,0,1-57.41,138.57Z"/></g></svg>