<?xml version="1.0" encoding="utf-8"?>
<!-- Generator: Adobe Illustrator 23.1.1, SVG Export Plug-In . SVG Version: 6.00 Build 0)  -->
<svg version="1.1" id="Layer_1" xmlns="http://www.w3.org/2000/svg" xmlns:xlink="http://www.w3.org/1999/xlink" x="0px" y="0px"
	 viewBox="0 0 500 268" style="enable-background:new 0 0 500 268;" xml:space="preserve">
<style type="text/css">
	.st0{fill:#342951;}
</style>
<title>finalIconDark</title>
<g id="Layer_5">
	<path class="st0" d="M358.4,209.9c-22.1,0-195.9-0.2-197.6-0.3c-33.2,0.4-60.3-26.2-60.7-59.4c-0.2-16,6.1-31.5,17.4-42.9
		c11-11.3,26.1-17.6,41.8-17.6c13.4,0,25.5,4.4,34.9,12.8c2.3,2.1,2.6,5.6,0.5,8s-5.6,2.6-8,0.5c-7.3-6.5-16.8-9.9-27.4-9.9
		c-12.7,0-24.9,5.1-33.8,14.2c-18.9,19.1-18.8,50,0.3,69c9.1,9,21.4,14.1,34.2,14.1h0.7c1.9,0,175.6,0.3,197.7,0.3
		c19.9,0,30.4-15.3,30.4-30.4s-10.4-30.3-30.2-30.4c-4.4,0.3-9.5,1.1-10.7,1.8c-0.3,0.2-0.7,0.4-1.1,0.5c-5,1.7-9.5,4.9-12.6,9.1
		c-1.9,2.5-5.4,3-7.9,1.1c-2.5-1.9-3-5.4-1.1-7.9c4.4-5.9,10.5-10.4,17.5-12.8c4.5-2.3,12.9-2.9,15.4-3.1h0.3
		c27.3,0,41.6,20.9,41.6,41.6C400,188.5,385.4,209.9,358.4,209.9z"/>
	<path class="st0" d="M326,127.9c-3.1,0-5.6-2.5-5.6-5.6v0c0-40.3-32.6-72.9-72.9-73c-24.3,0-47,12.1-60.5,32.2
		c-1.7,2.6-5.2,3.3-7.8,1.5s-3.3-5.2-1.5-7.8l0,0c26-38.5,78.4-48.7,116.9-22.6c23.2,15.6,37,41.8,37.1,69.7
		C331.6,125.4,329.1,127.9,326,127.9z"/>
</g>
</svg>
