<svg xmlns="http://www.w3.org/2000/svg" viewBox="0 0 115.86 80.51"><defs><style>.cls-1{fill:none;stroke:#342951;stroke-linecap:round;stroke-linejoin:round;stroke-width:5px;}</style></defs><title>wtfDreamOnLogo</title><g id="Layer_2" data-name="Layer 2"><g id="Layer_1-2" data-name="Layer 1"><path class="cls-1" d="M52.58,7.63a33,33,0,0,0-13.39,6.6,31.11,31.11,0,0,0-6.95,8.29,34.21,34.21,0,0,0-2.37,5.1C29,29.91,29,30,26.53,30a24,24,0,1,0,0,48.05h68a18.88,18.88,0,0,0,18.88-18.88c0-10.43-2.21-19.82-14.42-19.82-5.67,0-6.3,4.41-6.3,9.44,0,.63-1-9.46-1-9.46,0-15.37-7.33-28.07-21.7-31.67"/><path class="cls-1" d="M35.07,23.89a18.66,18.66,0,0,0-4.59,13.5c.9,16.76,13.61,30.4,30.4,30.4S91.64,56,91.64,39.2"/><line class="cls-1" x1="61.12" y1="2.5" x2="61.12" y2="27.98"/></g></g></svg>