<?xml version="1.0" standalone="no"?>
<!DOCTYPE svg PUBLIC "-//W3C//DTD SVG 20010904//EN"
 "http://www.w3.org/TR/2001/REC-SVG-20010904/DTD/svg10.dtd">
<svg version="1.0" xmlns="http://www.w3.org/2000/svg"
 width="500.000000pt" height="500.000000pt" viewBox="0 0 500.000000 500.000000"
 preserveAspectRatio="xMidYMid meet">
<metadata>
Created by potrace 1.11, written by Peter Selinger 2001-2013
</metadata>
<g transform="translate(0.000000,500.000000) scale(0.100000,-0.100000)"
fill="#000000" stroke="none">
<path d="M3464 4643 c-100 -120 -355 -434 -569 -698 -213 -264 -390 -483 -394
-487 -3 -4 -188 220 -411 498 l-405 504 -167 0 -168 0 0 -2161 0 -2162 53 48
c28 27 107 102 175 168 l122 119 0 1715 c0 1060 4 1713 9 1711 5 -1 177 -213
381 -470 371 -467 372 -468 408 -467 36 0 42 7 417 475 l380 474 5 -956 5
-956 172 164 173 163 0 1268 c0 697 -1 1267 -3 1267 -1 0 -84 -98 -183 -217z"/>
</g>
</svg>
