<?xml version="1.0" standalone="no"?>
<!DOCTYPE svg PUBLIC "-//W3C//DTD SVG 20010904//EN"
 "http://www.w3.org/TR/2001/REC-SVG-20010904/DTD/svg10.dtd">
<svg version="1.0" xmlns="http://www.w3.org/2000/svg"
 width="500.000000pt" height="500.000000pt" viewBox="0 0 500.000000 500.000000"
 preserveAspectRatio="xMidYMid meet">
<metadata>
Created by potrace 1.11, written by Peter Selinger 2001-2013
</metadata>
<g transform="translate(0.000000,500.000000) scale(0.100000,-0.100000)"
fill="#000000" stroke="none">
<path d="M3587 4792 c-30 -38 -61 -75 -69 -83 -7 -8 -30 -35 -51 -61 -21 -26
-43 -53 -50 -60 -7 -7 -41 -49 -77 -93 -36 -44 -73 -89 -82 -100 -9 -11 -127
-157 -263 -325 -435 -539 -494 -611 -500 -611 -3 0 -70 81 -149 179 -79 98
-150 187 -159 198 -9 10 -87 107 -173 214 -86 107 -169 211 -185 230 -15 19
-55 69 -89 110 l-60 75 -165 0 c-106 0 -165 -3 -166 -10 -3 -54 0 -4307 3
-4310 4 -4 70 56 248 228 l105 102 0 1713 c0 941 2 1712 5 1712 3 0 25 -26 50
-57 25 -32 52 -67 61 -78 10 -11 40 -49 68 -85 29 -36 57 -72 64 -80 7 -8 45
-57 86 -109 41 -52 80 -102 87 -110 7 -9 86 -107 174 -218 158 -199 163 -203
198 -202 35 0 42 7 132 121 52 66 103 130 113 142 10 11 26 30 35 41 9 11 33
40 52 65 38 49 448 560 460 573 4 4 7 -420 7 -943 0 -523 3 -953 6 -956 3 -3
54 42 114 99 59 58 137 132 172 164 l63 59 0 1262 c0 695 -2 1265 -4 1268 -3
2 -30 -26 -61 -64z"/>
</g>
</svg>
