<?xml version="1.0" encoding="utf-8"?>
<!-- Generator: Adobe Illustrator 23.0.6, SVG Export Plug-In . SVG Version: 6.00 Build 0)  -->
<svg version="1.1" id="Layer_1" xmlns="http://www.w3.org/2000/svg" xmlns:xlink="http://www.w3.org/1999/xlink" x="0px" y="0px"
	 viewBox="0 0 500 500" style="enable-background:new 0 0 500 500;" xml:space="preserve">
<style type="text/css">
	.st0{fill:#344557;}
</style>
<path class="st0" d="M284.1,265.9c-4-2.3-8.3-3.3-12.5-3.3c2.2-3.7,3.4-8,3.4-12.6c0-1.9-25-219.3-25-219.3S225,248.1,225,250
	c0,4.5,1.2,8.8,3.3,12.5c-4.2,0-8.5,1.1-12.4,3.3c-1.7,1-177.5,131.4-177.5,131.4s200.8-87.1,202.5-88c3.9-2.2,6.9-5.4,9.1-9
	c2.1,3.6,5.2,6.8,9.1,9.1c1.7,0.8,202.5,87.9,202.5,87.9S285.8,266.8,284.1,265.9z"/>
</svg>
