<?xml version="1.0" encoding="utf-8"?>
<!-- Generator: Adobe Illustrator 23.0.6, SVG Export Plug-In . SVG Version: 6.00 Build 0)  -->
<svg version="1.1" id="Layer_1" xmlns="http://www.w3.org/2000/svg" xmlns:xlink="http://www.w3.org/1999/xlink" x="0px" y="0px"
	 viewBox="0 0 500 500" style="enable-background:new 0 0 500 500;" xml:space="preserve">
<style type="text/css">
	.st0{fill:#344557;}
</style>
<g>
	<g>
		<path class="st0" d="M461.6,397.2c0,0-175.8-130.4-177.5-131.3c-12-6.9-27.2-2.8-34.2,9.2s-2.8,27.2,9.2,34.2
			C260.8,310.1,461.6,397.2,461.6,397.2z"/>
	</g>
	<g>
		<path class="st0" d="M38.4,397.2c0,0,200.8-87.1,202.5-88c12-6.9,16.1-22.2,9.2-34.2s-22.2-16.1-34.2-9.2
			C214.2,266.8,38.4,397.2,38.4,397.2z"/>
	</g>
	<g>
		<path class="st0" d="M250,30.7c0,0-25,217.4-25,219.3c0,13.8,11.2,25,25,25s25-11.2,25-25C275,248.1,250,30.7,250,30.7z"/>
	</g>
</g>
</svg>
