<svg xmlns="http://www.w3.org/2000/svg" viewBox="0 0 331.56 173.37"><defs><style>.cls-1{fill:#342951;}</style></defs><title>revisedDreamOnLogotype</title><g id="Layer_2" data-name="Layer 2"><g id="LOGOTYPE"><path class="cls-1" d="M184.85,87.91a46.93,46.93,0,0,0-27.74,84.78,3.5,3.5,0,1,0,4.14-5.64,39.93,39.93,0,1,1,47.21,0,3.5,3.5,0,1,0,4.14,5.64,46.93,46.93,0,0,0-27.75-84.78Z"/><path class="cls-1" d="M261.42,130.8a19.56,19.56,0,0,0-12.67,4.65v-.36a3.5,3.5,0,0,0-7,0v31.55a3.5,3.5,0,0,0,7,0V150.47a12.67,12.67,0,1,1,25.34,0v16.11a3.5,3.5,0,0,0,7,0V150.47A19.69,19.69,0,0,0,261.42,130.8Z"/><path class="cls-1" d="M21.43,52.84,21.52,59l.26,5.15c.11,1.48.17,2.52.17,3.13s0,1.21,0,1.84a3.76,3.76,0,0,1-1,2.1A2.59,2.59,0,0,1,19,72.39,4.29,4.29,0,0,1,17.23,72,4,4,0,0,1,15,68.19l.35-10.55V53.52a11.33,11.33,0,0,0-6.3,4.42,12.67,12.67,0,0,0-2.36,7.59,15.11,15.11,0,0,0,5.4,11.57q5.57,4.8,14.23,4.8a27.65,27.65,0,0,0,20-7.84,25,25,0,0,0,8.1-18.56A30.88,30.88,0,0,0,48.1,36.38a22,22,0,0,0-8.32-6.52,26.64,26.64,0,0,0-11.4-2.4,29.59,29.59,0,0,0-6.43.77l-7,2c-2.74,0-4.12-1-4.12-2.91s1.92-3.4,5.75-4.37a51.56,51.56,0,0,1,12.77-1.46,33,33,0,0,1,13.46,2.83,27.38,27.38,0,0,1,10.38,7.63,34.23,34.23,0,0,1,8.31,22.72A33.1,33.1,0,0,1,57.4,70.93,32.22,32.22,0,0,1,45.23,83.1Q37.13,87.92,26,87.91T7.46,81.48A20.25,20.25,0,0,1,0,65.53,17.17,17.17,0,0,1,4.42,53.65a18.84,18.84,0,0,1,10.84-6.13C19.84,46.73,21.38,48.82,21.43,52.84Z"/><path class="cls-1" d="M107.42,85.42A15.69,15.69,0,0,1,91.74,69.74c0-.26,0-.51,0-.77a2.55,2.55,0,0,1,0-.39,3,3,0,0,1,.11-.8c.86-8,7-13.72,14.85-13.72,8.67,0,15,6.29,15,15a3.5,3.5,0,0,1-1,2.5,3.45,3.45,0,0,1-2.52,1l-19-.32a8.71,8.71,0,0,0,8.33,6.22,8.62,8.62,0,0,0,6.14-2.54,3.5,3.5,0,0,1,5,5A15.58,15.58,0,0,1,107.42,85.42ZM99.8,65.21l14.16.24a7.51,7.51,0,0,0-7.26-4.39A7.61,7.61,0,0,0,99.8,65.21Z"/><path class="cls-1" d="M89.52,56.44a15.68,15.68,0,0,0-17.07.34,3.5,3.5,0,0,0-6.9.8V81.9a3.5,3.5,0,0,0,7,0V69.76a8.69,8.69,0,0,1,8.68-8.68,8.59,8.59,0,0,1,4.58,1.31,3.51,3.51,0,1,0,3.71-6Z"/><path class="cls-1" d="M154.92,79.4c-.06-.06-1.35-1.42-1.35-8.74,0,0,0,0,0-.06,0-.28,0-.55,0-.84a15.73,15.73,0,1,0-5.42,11.84,8.4,8.4,0,0,0,1.95,2.9,3.46,3.46,0,0,0,4.88-.16A3.53,3.53,0,0,0,154.92,79.4Zm-17-1a8.69,8.69,0,1,1,8.68-8.69A8.69,8.69,0,0,1,137.92,78.45Z"/><path class="cls-1" d="M310.16,42.8H310c-1.67.09-5.63.42-7.92,1.58a19.34,19.34,0,0,0-9,6.6,3.5,3.5,0,1,0,5.57,4.24,12.42,12.42,0,0,1,6-4.31,3,3,0,0,0,.66-.3,20,20,0,0,1,5-.81c6.91,0,14.3,4.55,14.3,14.4,0,7.16-4.94,14.4-14.4,14.4H213.32l.09-8.6a15.69,15.69,0,0,0-15.5-15.86h-.18a15.65,15.65,0,0,0-12.06,5.68,15.85,15.85,0,0,0-1.09-1.24,15.58,15.58,0,0,0-11-4.72h-.18a15.55,15.55,0,0,0-9,2.87,3.5,3.5,0,0,0-6.82,1.09V78c0,.13,0,.24,0,.36l0,3.22A3.5,3.5,0,0,0,161,85.09h.05a3.49,3.49,0,0,0,3.49-3.46l.14-12.18a8.7,8.7,0,0,1,8.68-8.59h.1a8.7,8.7,0,0,1,8.59,8.78l-.14,12.14a3.5,3.5,0,0,0,3.46,3.54h0a3.5,3.5,0,0,0,3.5-3.46l.14-12.14a8.67,8.67,0,0,1,8.68-8.58h.1a8.68,8.68,0,0,1,8.58,8.78l-.13,12.14a3.5,3.5,0,0,0,3.5,3.54H310.16c13.9,0,21.4-11,21.4-21.4S324.06,42.8,310.16,42.8Z"/><path class="cls-1" d="M198.65,52.45a3.61,3.61,0,0,0,1.06.17,3.51,3.51,0,0,0,3.34-2.45A21.71,21.71,0,0,1,222.15,35a3.5,3.5,0,0,0-.55-7,28.71,28.71,0,0,0-25.23,20A3.5,3.5,0,0,0,198.65,52.45Z"/><path class="cls-1" d="M236.34,60.27a3.5,3.5,0,0,0,3-5.36,31.28,31.28,0,0,1,8-41.86,3.5,3.5,0,0,0-4.14-5.65,38.27,38.27,0,0,0-9.8,51.23A3.48,3.48,0,0,0,236.34,60.27Z"/><path class="cls-1" d="M284.3,13.05a31.41,31.41,0,0,1,12.79,25.23,3.5,3.5,0,1,0,7,0A38.46,38.46,0,0,0,288.44,7.4a3.5,3.5,0,0,0-4.14,5.65Z"/><path class="cls-1" d="M265.81,41.78a3.5,3.5,0,0,0,3.5-3.5V3.5a3.5,3.5,0,0,0-7,0V38.28A3.5,3.5,0,0,0,265.81,41.78Z"/></g></g></svg>