<svg xmlns="http://www.w3.org/2000/svg" viewBox="0 0 171.99 107.12"><defs><style>.cls-1{fill:#342951;}</style></defs><title>revisedDreamOnIcon</title><g id="Layer_2" data-name="Layer 2"><g id="LOGOTYPE"><path class="cls-1" d="M145.69,107.12H35.77a35.77,35.77,0,0,1,0-71.54,3.5,3.5,0,0,1,0,7,28.77,28.77,0,0,0,0,57.54H145.69c9.59,0,19.3-6.63,19.3-19.31,0-9.56-6.6-19.25-19.21-19.3-2.8.16-6,.71-6.8,1.15a5.29,5.29,0,0,1-.68.32,16.76,16.76,0,0,0-8.05,5.82,3.5,3.5,0,1,1-5.57-4.24,23.65,23.65,0,0,1,11.06-8.11c2.83-1.45,8.14-1.84,9.76-1.93h.19c17.26,0,26.3,13.23,26.3,26.3C172,97.9,158.44,107.12,145.69,107.12Z"/><path class="cls-1" d="M51.66,74.85a3.5,3.5,0,0,1-3-1.64,47.84,47.84,0,0,1,12.24-64,3.5,3.5,0,0,1,4.14,5.65A40.82,40.82,0,0,0,54.62,69.48a3.51,3.51,0,0,1-3,5.37Z"/><path class="cls-1" d="M133.49,51.3a3.5,3.5,0,0,1-3.5-3.5,41,41,0,0,0-16.68-32.91,3.5,3.5,0,0,1,4.14-5.65A48,48,0,0,1,137,47.8,3.5,3.5,0,0,1,133.49,51.3Z"/><path class="cls-1" d="M89.19,51.3a3.5,3.5,0,0,1-3.5-3.5V3.5a3.5,3.5,0,0,1,7,0V47.8A3.5,3.5,0,0,1,89.19,51.3Z"/></g></g></svg>